<?xml version="1.0" encoding="utf-8"?>

<!-- The icon can be used freely in both personal and commercial projects with no attribution required, but always appreciated. 
You may NOT sub-license, resell, rent, redistribute or otherwise transfer the icon without express written permission from iconmonstr.com -->

<!DOCTYPE svg PUBLIC "-//W3C//DTD SVG 1.1//EN" "http://www.w3.org/Graphics/SVG/1.1/DTD/svg11.dtd">
<svg version="1.1" xmlns="http://www.w3.org/2000/svg" xmlns:xlink="http://www.w3.org/1999/xlink" x="0px" y="0px"
	 width="512px" height="512px" viewBox="0 0 512 512" enable-background="new 0 0 512 512" xml:space="preserve">
<path id="stream-icon" d="M58.284,198C83.334,112.471,162.362,50.001,255.992,50.001c125.555,0,222.208,111.474,203.77,236.332
	h-16.77c-21.297,0-24.002-2.5-35.426-34.19C398.496,226.987,386.344,196,358.277,196c-28.068,0-39.59,31.242-49.289,56.144
	c-8.045,20.657-11.762,32.956-18.748,32.956c-6.775,0-10.49-12-18.75-32.956C261.695,227.287,250.268,196,222.201,196
	s-39.968,31.07-49.29,56.143c-8.351,22.458-11.516,32.957-18.752,32.957c-6.939,0-9.691-10.8-18.753-32.957
	C125.3,227.434,113.825,198,83.116,198H58.284z M426.316,320c-28.068,0-39.385-29.338-49.289-54.144
	C366.863,240.4,364.799,232,358.277,232c-6.553,0-9.213,10.399-18.75,33.856C329.473,290.59,318.307,322,290.24,322
	c-28.068,0-39.666-31.207-49.29-56.143c-8.956-23.207-11.571-32.957-18.75-32.957c-6.858,0-9.335,9.3-18.753,32.957
	C193.57,290.675,182.226,322,154.159,322c-28.068,0-40.375-30.934-49.291-56.143C93.657,234.166,90.28,231.5,69.325,231.5H51.448
	c-14.634,123.436,81.773,230.499,204.544,230.499c91.424,0,168.926-59.563,195.848-141.999H426.316z"/>
</svg>
