<?xml version="1.0" encoding="utf-8"?>

<!-- The icon can be used freely in both personal and commercial projects with no attribution required, but always appreciated. 
You may NOT sub-license, resell, rent, redistribute or otherwise transfer the icon without express written permission from iconmonstr.com -->

<!DOCTYPE svg PUBLIC "-//W3C//DTD SVG 1.1//EN" "http://www.w3.org/Graphics/SVG/1.1/DTD/svg11.dtd">
<svg version="1.1" xmlns="http://www.w3.org/2000/svg" xmlns:xlink="http://www.w3.org/1999/xlink" x="0px" y="0px"
	 width="512px" height="512px" viewBox="0 0 512 512" enable-background="new 0 0 512 512" xml:space="preserve">
<path id="stream-2-icon" d="M256.001,50.001C142.229,50.001,50,142.231,50,256c0,113.773,92.229,205.999,206.001,205.999
	C369.77,461.999,462,369.773,462,256C462,142.231,369.77,50.001,256.001,50.001z M256.001,90.001
	C347.738,90.001,422,164.246,422,256c0,10.633-1.004,21.111-2.945,31.333H407.52c-16.737,0-19.395-4.224-28.43-35.498
	C372.553,229.203,361.673,195,337.747,195c-24.384,0-33.803,35.452-42.59,64.114c-4.777,15.581-7.66,24.985-11.928,24.985
	c-4.132,0-6.06-9.42-10.91-25.026C263.257,229.917,252.895,195,228.711,195c-25.125,0-35.857,38.208-43.035,62.542
	c-5.226,17.683-6.848,26.558-11.485,26.558c-3.938,0-5.209-7.191-9.734-21.52C154.144,229.938,146.25,197,115.266,197h-14.513
	C124.029,135.679,183.799,90.001,256.001,90.001z M256.001,421.999C164.258,421.999,90,347.757,90,256
	c0-8.62,0.661-17.137,1.942-25.5h14.272c16.141,0,17.722,4.239,26.628,35.66c6.025,21.259,17.11,56.84,41.348,56.84
	c24.533,0,34.908-36.171,44.272-66.13c5.074-16.246,6.177-22.97,10.248-22.97c4.361,0,5.631,7.477,10.604,23.858
	C248.318,287.392,258.714,323,283.229,323c21.976,0,32.47-29.382,40.099-52.991c8.703-26.972,9.983-37.009,14.419-37.009
	c4.513,0,5.359,8.743,13.184,33.193C358.999,291.414,369.145,320,392.266,320h16.993
	C384.766,378.647,326.341,421.999,256.001,421.999z"/>
</svg>
