<?xml version="1.0" encoding="UTF-8" standalone="no"?>
<!-- License Agreement at http://iconmonstr.com/license/ -->

<svg
   xmlns:dc="http://purl.org/dc/elements/1.1/"
   xmlns:cc="http://creativecommons.org/ns#"
   xmlns:rdf="http://www.w3.org/1999/02/22-rdf-syntax-ns#"
   xmlns:svg="http://www.w3.org/2000/svg"
   xmlns="http://www.w3.org/2000/svg"
   xmlns:sodipodi="http://sodipodi.sourceforge.net/DTD/sodipodi-0.dtd"
   xmlns:inkscape="http://www.inkscape.org/namespaces/inkscape"
   version="1.1"
   x="0px"
   y="0px"
   width="512px"
   height="512px"
   viewBox="0 0 512 512"
   enable-background="new 0 0 512 512"
   xml:space="preserve"
   id="svg3030"
   inkscape:version="0.48.3.1 r9886"
   sodipodi:docname="digital_input.svg"
   inkscape:export-filename="/home/melanie/Obeo/dev/arduino/git/arduino/fr.obeo.dsl.arduino.design/images/digital_input.png"
   inkscape:export-xdpi="7.4357433"
   inkscape:export-ydpi="7.4357433"><metadata
   id="metadata3037"><rdf:RDF><cc:Work
       rdf:about=""><dc:format>image/svg+xml</dc:format><dc:type
         rdf:resource="http://purl.org/dc/dcmitype/StillImage" /><dc:title></dc:title></cc:Work></rdf:RDF></metadata><defs
   id="defs3035" /><sodipodi:namedview
   pagecolor="#ffffff"
   bordercolor="#666666"
   borderopacity="1"
   objecttolerance="10"
   gridtolerance="10"
   guidetolerance="10"
   inkscape:pageopacity="0"
   inkscape:pageshadow="2"
   inkscape:window-width="640"
   inkscape:window-height="480"
   id="namedview3033"
   showgrid="false"
   inkscape:zoom="0.4609375"
   inkscape:cx="256"
   inkscape:cy="342.77966"
   inkscape:window-x="576"
   inkscape:window-y="460"
   inkscape:window-maximized="0"
   inkscape:current-layer="svg3030" />
<path
   d="M 230,298.021 V 213.976 H 372.859 V 172.23 L 456.776,256 372.859,339.77 V 298.022 H 230 z"
   id="path2985"
   inkscape:connector-curvature="0" />
<path
   inkscape:connector-curvature="0"
   id="stream-2-icon"
   d="m 155.05138,171.86387 c -47.27245,0 -85.59375,38.32171 -85.59375,85.59292 0,47.27286 38.3213,85.59292 85.59375,85.59292 47.27121,0 85.59292,-38.32006 85.59292,-85.59292 0,-47.27121 -38.32171,-85.59292 -85.59292,-85.59292 z m 0,16.62005 c 38.11687,0 68.97287,30.84893 68.97287,68.97287 0,4.41804 -0.41717,8.77167 -1.22365,13.01891 h -4.79282 c -6.95425,0 -8.05866,-1.75508 -11.81272,-14.74948 -2.71613,-9.40364 -7.23679,-23.61504 -17.17807,-23.61504 -10.13159,0 -14.04521,14.73037 -17.69623,26.63949 -1.98485,6.47393 -3.18274,10.3813 -4.95609,10.3813 -1.71685,0 -2.51794,-3.91403 -4.53313,-10.39834 -3.76527,-12.11437 -8.0707,-26.62245 -18.1192,-26.62245 -10.43946,0 -14.89863,15.87549 -17.88111,25.98631 -2.17141,7.34733 -2.84534,11.0349 -4.77204,11.0349 -1.63624,0 -2.16435,-2.98788 -4.0445,-8.9416 -4.28506,-13.56279 -7.56503,-27.2486 -20.43891,-27.2486 h -6.0302 c 9.67122,-25.47898 34.50576,-44.45827 64.5058,-44.45827 z m 0,137.94572 c -38.11936,0 -68.97368,-30.84767 -68.97368,-68.97285 0,-3.58162 0.27464,-7.12045 0.80689,-10.59529 h 5.93004 c 6.70662,0 7.36354,1.7613 11.06398,14.81679 2.50341,8.83315 7.10924,23.6171 17.18016,23.6171 10.19351,0 14.50435,-15.02911 18.3951,-27.47711 2.10826,-6.75023 2.56655,-9.54408 4.25805,-9.54408 1.812,0 2.3397,3.10671 4.40598,9.91304 3.7412,12.31298 8.06074,27.10815 18.24677,27.10815 9.13106,0 13.49134,-12.20826 16.66119,-22.01783 3.61612,-11.20691 4.14797,-15.3773 5.99113,-15.3773 1.87515,0 2.22666,3.63273 5.47796,13.79174 3.35228,10.47935 7.56795,22.35688 17.17477,22.35688 h 7.06063 c -10.1769,24.36794 -34.45258,42.38076 -63.67897,42.38076 z" /></svg>