<?xml version="1.0" encoding="UTF-8" standalone="no"?>
<!-- License Agreement at http://iconmonstr.com/license/ -->

<svg
   xmlns:dc="http://purl.org/dc/elements/1.1/"
   xmlns:cc="http://creativecommons.org/ns#"
   xmlns:rdf="http://www.w3.org/1999/02/22-rdf-syntax-ns#"
   xmlns:svg="http://www.w3.org/2000/svg"
   xmlns="http://www.w3.org/2000/svg"
   xmlns:sodipodi="http://sodipodi.sourceforge.net/DTD/sodipodi-0.dtd"
   xmlns:inkscape="http://www.inkscape.org/namespaces/inkscape"
   version="1.1"
   x="0px"
   y="0px"
   width="512px"
   height="512px"
   viewBox="0 0 512 512"
   enable-background="new 0 0 512 512"
   xml:space="preserve"
   id="svg2"
   inkscape:version="0.48.3.1 r9886"
   sodipodi:docname="loop_invalid.svg"><metadata
   id="metadata9"><rdf:RDF><cc:Work
       rdf:about=""><dc:format>image/svg+xml</dc:format><dc:type
         rdf:resource="http://purl.org/dc/dcmitype/StillImage" /></cc:Work></rdf:RDF></metadata><defs
   id="defs7" /><sodipodi:namedview
   pagecolor="#ffffff"
   bordercolor="#666666"
   borderopacity="1"
   objecttolerance="10"
   gridtolerance="10"
   guidetolerance="10"
   inkscape:pageopacity="0"
   inkscape:pageshadow="2"
   inkscape:window-width="640"
   inkscape:window-height="480"
   id="namedview5"
   showgrid="false"
   inkscape:zoom="0.4609375"
   inkscape:cx="256"
   inkscape:cy="256"
   inkscape:window-x="0"
   inkscape:window-y="306"
   inkscape:window-maximized="0"
   inkscape:current-layer="svg2" />
<path
   id="power-on-3-icon"
   d="M310.838,348h-70V164h70V348z M454.309,152.96C417.496,89.198,349.463,49.92,275.838,49.92  c-55.373,0-107.58,22.217-145.725,60.356l28.312,28.312c30.732-30.729,72.797-48.63,117.412-48.63  c59.32,0,114.135,31.647,143.797,83.021c29.66,51.373,29.66,114.667,0,166.042c-29.662,51.373-84.477,83.02-143.797,83.02  c-59.322,0-114.137-31.646-143.797-83.02c-14.707-25.475-22.113-53.881-22.234-82.311h40.682l-60.082-83.71l-60.324,83.71H69.77  c0.121,35.342,9.314,70.66,27.598,102.33C134.18,422.803,202.213,462.08,275.838,462.08s141.658-39.277,178.471-103.039  S491.121,216.722,454.309,152.96z"
   style="fill:#ff5555" />
</svg>