<?xml version="1.0" encoding="utf-8"?>

<!-- License Agreement at http://iconmonstr.com/license/ -->

<!DOCTYPE svg PUBLIC "-//W3C//DTD SVG 1.1//EN" "http://www.w3.org/Graphics/SVG/1.1/DTD/svg11.dtd">
<svg version="1.1" xmlns="http://www.w3.org/2000/svg" xmlns:xlink="http://www.w3.org/1999/xlink" x="0px" y="0px"
	 width="512px" height="512px" viewBox="0 0 512 512" enable-background="new 0 0 512 512" xml:space="preserve">
<path id="power-on-3-icon" d="M310.838,348h-70V164h70V348z M454.309,152.96C417.496,89.198,349.463,49.92,275.838,49.92
	c-55.373,0-107.58,22.217-145.725,60.356l28.312,28.312c30.732-30.729,72.797-48.63,117.412-48.63
	c59.32,0,114.135,31.647,143.797,83.021c29.66,51.373,29.66,114.667,0,166.042c-29.662,51.373-84.477,83.02-143.797,83.02
	c-59.322,0-114.137-31.646-143.797-83.02c-14.707-25.475-22.113-53.881-22.234-82.311h40.682l-60.082-83.71l-60.324,83.71H69.77
	c0.121,35.342,9.314,70.66,27.598,102.33C134.18,422.803,202.213,462.08,275.838,462.08s141.658-39.277,178.471-103.039
	S491.121,216.722,454.309,152.96z"/>
</svg>
