<?xml version="1.0" encoding="utf-8"?>

<!-- License Agreement at http://iconmonstr.com/license/ -->

<!DOCTYPE svg PUBLIC "-//W3C//DTD SVG 1.1//EN" "http://www.w3.org/Graphics/SVG/1.1/DTD/svg11.dtd">
<svg version="1.1" xmlns="http://www.w3.org/2000/svg" xmlns:xlink="http://www.w3.org/1999/xlink" x="0px" y="0px"
	 width="512px" height="512px" viewBox="0 0 512 512" enable-background="new 0 0 512 512" xml:space="preserve">
<path id="cursor-pointer-2-icon" d="M230.609,80c13.906,0,18.68,9.272,18.68,23.18v102.844c0,19.223,7.324,25.894,13.175,25.894
	c4.662,0,8.389-4.237,6.725-9.734l-4.012-13.374c17.926,2.729,28.811,4.045,32.482,16.167l3.062,9.632
	c3.283,10.855,19.629,5.886,16.336-4.948l-4.23-12.449c16.18,2.152,28.082,3.705,31.633,15.437l3.391,9.38
	c3.264,10.805,19.646,5.95,16.332-4.943l-3.557-10.072c25.791,3.669,35.357,28.594,31.768,60.46
	c-4.797,42.594-34.166,62.935-34.166,144.529c-32.824,0-143.308,0-143.308,0c-15.432-61.973-46.52-105.326-81.875-138.431
	c-20.861-19.533-17.609-40.151,3.494-40.15c25.078,0,60.752,28.374,76.393,45.396V103.18C212.931,89.272,216.705,80,230.609,80z
	 M230.609,50c-27.051,0-47.678,18.098-47.678,53.18v134.274c-48.529-27.005-81.059-10.855-90.873,13.979
	c-9.09,23.007,2.395,47.098,20.482,64.034c59.836,56.027,70.264,111.718,78.934,146.532h196.753v-30
	c0-76.095,28.285-90.625,33.977-141.173c5.215-46.294-11.445-84.631-57.354-93.518c-15.742-3.048-85.562-16.652-85.562-16.652
	V103.18C279.288,68.699,257.843,50,230.609,50z"/>
</svg>
