<?xml version="1.0" encoding="utf-8"?>

<!-- License Agreement at http://iconmonstr.com/license/ -->

<!DOCTYPE svg PUBLIC "-//W3C//DTD SVG 1.1//EN" "http://www.w3.org/Graphics/SVG/1.1/DTD/svg11.dtd">
<svg version="1.1" xmlns="http://www.w3.org/2000/svg" xmlns:xlink="http://www.w3.org/1999/xlink" x="0px" y="0px"
	 width="512px" height="512px" viewBox="0 0 512 512" enable-background="new 0 0 512 512" xml:space="preserve">
<path id="power-off-icon" d="M291,50h-70v184.001h70V50z M366.227,112.407c22.621,15.837,41.927,36.611,56.2,61.334
	c34.329,59.458,34.329,132.714,0,192.173C388.098,425.372,324.656,462,256,462c-68.657,0-132.099-36.628-166.427-96.086
	c-34.329-59.459-34.329-132.715,0-192.173c14.272-24.723,33.579-45.497,56.2-61.334l23.444,33.483
	c-17.81,12.468-33.009,28.824-44.247,48.287c-27.026,46.812-27.026,104.487,0,151.299c27.027,46.812,76.976,75.649,131.029,75.649
	s104.001-28.838,131.028-75.649c27.026-46.812,27.026-104.486,0-151.299c-11.237-19.463-26.438-35.819-44.247-48.287
	L366.227,112.407z"/>
</svg>
